<mxfile host="app.diagrams.net" modified="2020-09-16T19:15:33.406Z" agent="5.0 (X11)" etag="J1x3h_F33yl3AdEOJQ3B" version="13.6.10" type="github">
  <diagram id="BIq3BtflUTxdFCEPcI_h" name="Page-1">
    <mxGraphModel dx="1100" dy="618" grid="1" gridSize="10" guides="1" tooltips="1" connect="1" arrows="1" fold="1" page="1" pageScale="1" pageWidth="850" pageHeight="1100" math="0" shadow="0">
      <root>
        <mxCell id="0" />
        <mxCell id="1" parent="0" />
        <mxCell id="M7ppvMdm6Yoi3kyKLdJ_-1" value="&lt;div&gt;OSI Diagram of the HERMES network stack&lt;/div&gt;&lt;div&gt;rafael@rhizomatica.org - 2020 v1&lt;br&gt;&lt;/div&gt;" style="rounded=0;whiteSpace=wrap;html=1;" vertex="1" parent="1">
          <mxGeometry x="40" y="20" width="250" height="30" as="geometry" />
        </mxCell>
        <mxCell id="M7ppvMdm6Yoi3kyKLdJ_-2" value="&lt;div&gt;End-user &lt;br&gt;&lt;/div&gt;&lt;div&gt;Application Layer&lt;/div&gt;&lt;div&gt;- HERMES Web Interface&lt;br&gt;&lt;/div&gt;&lt;div&gt;- Deltachat&lt;/div&gt;&lt;div&gt;- WebMail&lt;br&gt;&lt;/div&gt;" style="rounded=0;whiteSpace=wrap;html=1;" vertex="1" parent="1">
          <mxGeometry x="110" y="100" width="200" height="95" as="geometry" />
        </mxCell>
        <mxCell id="M7ppvMdm6Yoi3kyKLdJ_-3" value="&lt;div&gt;Administrative Application Layer&lt;/div&gt;&lt;div&gt;- Web &lt;br&gt;&lt;/div&gt;" style="rounded=0;whiteSpace=wrap;html=1;" vertex="1" parent="1">
          <mxGeometry x="425" y="100" width="120" height="60" as="geometry" />
        </mxCell>
      </root>
    </mxGraphModel>
  </diagram>
</mxfile>
